<svg xmlns="http://www.w3.org/2000/svg" xmlns:xlink="http://www.w3.org/1999/xlink" width="1920" zoomAndPan="magnify" viewBox="0 0 1440 809.999993" height="1080" preserveAspectRatio="xMidYMid meet" version="1.0"><defs><g/><clipPath id="7d5970ef97"><path d="M 570 370.5 L 659.25 370.5 L 659.25 491.25 L 570 491.25 Z M 570 370.5 " clip-rule="nonzero"/></clipPath><clipPath id="d183a62d1c"><path d="M 748.5 370.5 L 837.75 370.5 L 837.75 491.25 L 748.5 491.25 Z M 748.5 370.5 " clip-rule="nonzero"/></clipPath><clipPath id="11c1240a2f"><path d="M 659.25 370.5 L 748.5 370.5 L 748.5 491.25 L 659.25 491.25 Z M 659.25 370.5 " clip-rule="nonzero"/></clipPath><clipPath id="e48c0d1f09"><path d="M 324.644531 395.0625 L 406.621094 395.0625 L 406.621094 466.6875 L 324.644531 466.6875 Z M 324.644531 395.0625 " clip-rule="nonzero"/></clipPath><clipPath id="f95543b0b1"><path d="M 365.570312 395.0625 L 406.5 466.6875 L 324.644531 466.6875 Z M 365.570312 395.0625 " clip-rule="nonzero"/></clipPath><clipPath id="1f9b5e5abc"><path d="M 419.25 412.289062 L 544.257812 412.289062 L 544.257812 449.460938 L 419.25 449.460938 Z M 419.25 412.289062 " clip-rule="nonzero"/></clipPath><clipPath id="7236c04145"><path d="M 544.164062 430.875 L 513.332031 412.289062 L 513.332031 427.707031 L 419.25 427.707031 L 419.25 434.042969 L 513.332031 434.042969 L 513.332031 449.460938 Z M 544.164062 430.875 " clip-rule="nonzero"/></clipPath><clipPath id="86492bb629"><path d="M 880.292969 412.289062 L 1005.300781 412.289062 L 1005.300781 449.460938 L 880.292969 449.460938 Z M 880.292969 412.289062 " clip-rule="nonzero"/></clipPath><clipPath id="46350e8611"><path d="M 1005.207031 430.875 L 974.375 412.289062 L 974.375 427.707031 L 880.292969 427.707031 L 880.292969 434.042969 L 974.375 434.042969 L 974.375 449.460938 Z M 1005.207031 430.875 " clip-rule="nonzero"/></clipPath><clipPath id="009d4ee178"><path d="M 1024.121094 385.582031 L 1114.707031 385.582031 L 1114.707031 476.167969 L 1024.121094 476.167969 Z M 1024.121094 385.582031 " clip-rule="nonzero"/></clipPath><clipPath id="d238581433"><path d="M 1069.414062 385.582031 L 1082.414062 399.492188 L 1101.441406 398.847656 L 1100.796875 417.875 L 1114.707031 430.875 L 1100.796875 443.875 L 1101.441406 462.902344 L 1082.414062 462.257812 L 1069.414062 476.167969 L 1056.414062 462.257812 L 1037.386719 462.902344 L 1038.03125 443.875 L 1024.121094 430.875 L 1038.03125 417.875 L 1037.386719 398.847656 L 1056.414062 399.492188 Z M 1069.414062 385.582031 " clip-rule="nonzero"/></clipPath><clipPath id="f0a90aa917"><path d="M 612.199219 270.648438 L 670.425781 270.648438 L 670.425781 353.867188 L 612.199219 353.867188 Z M 612.199219 270.648438 " clip-rule="nonzero"/></clipPath><clipPath id="3023d1d940"><path d="M 613.351562 346.726562 C 635.324219 319.351562 647.550781 303.148438 653.699219 292.425781 C 657.976562 285 659.773438 275.101562 662.773438 272.324219 C 664.050781 271.125 665.476562 270.824219 666.601562 270.898438 C 667.574219 270.976562 668.476562 271.574219 669.148438 272.175781 C 669.75 272.773438 670.273438 273.75 670.351562 274.648438 C 670.425781 275.851562 669.675781 277.726562 668.925781 278.550781 C 668.25 279.226562 667.199219 279.523438 666.300781 279.601562 C 665.476562 279.675781 664.351562 279.523438 663.601562 278.925781 C 662.699219 278.25 661.648438 276.523438 661.648438 275.324219 C 661.574219 274.125 662.476562 272.398438 663.449219 271.648438 C 664.425781 270.976562 666.449219 270.824219 667.5 271.125 C 668.476562 271.425781 669.226562 272.175781 669.675781 272.925781 C 670.199219 273.675781 670.5 274.351562 670.351562 275.625 C 669.976562 279.449219 664.875 289.273438 660.300781 297.300781 C 653.925781 308.25 641.925781 324.523438 634.273438 334.5 C 628.875 341.625 622.726562 349.800781 619.648438 352.273438 C 618.523438 353.175781 617.925781 353.550781 616.949219 353.699219 C 616.050781 353.773438 614.851562 353.476562 614.101562 352.949219 C 613.351562 352.425781 612.601562 351.449219 612.449219 350.476562 C 612.226562 349.351562 613.351562 346.726562 613.351562 346.726562 " clip-rule="nonzero"/></clipPath><clipPath id="ad764e64b7"><path d="M 702.933594 270.855469 L 713.371094 270.855469 L 713.371094 340.320312 L 702.933594 340.320312 Z M 702.933594 270.855469 " clip-rule="nonzero"/></clipPath><clipPath id="8d78746f4a"><path d="M 702.976562 335.773438 C 704.101562 303.601562 702.148438 281.25 703.648438 275.25 C 704.101562 273.300781 704.699219 272.324219 705.523438 271.648438 C 706.273438 271.050781 707.324219 270.824219 708.226562 270.898438 C 709.125 270.976562 710.175781 271.351562 710.851562 271.949219 C 711.523438 272.476562 712.125 273.375 712.273438 274.351562 C 712.425781 275.398438 711.898438 277.351562 711.148438 278.25 C 710.550781 279 709.574219 279.375 708.675781 279.523438 C 707.851562 279.675781 706.726562 279.601562 705.976562 279.074219 C 705 278.476562 703.875 276.824219 703.648438 275.699219 C 703.5 274.800781 703.726562 273.75 704.25 273 C 704.925781 272.101562 706.648438 271.050781 707.773438 270.898438 C 708.675781 270.75 709.726562 271.050781 710.476562 271.648438 C 711.300781 272.324219 711.824219 273.226562 712.351562 275.25 C 714.226562 283.125 713.101562 329.101562 711.523438 336.226562 C 711.148438 337.800781 711 338.324219 710.324219 339 C 709.648438 339.675781 708.449219 340.199219 707.550781 340.273438 C 706.574219 340.351562 705.375 340.050781 704.625 339.375 C 703.800781 338.625 702.976562 335.773438 702.976562 335.773438 " clip-rule="nonzero"/></clipPath><clipPath id="9f6aa98196"><path d="M 745 244.859375 L 812.398438 244.859375 L 812.398438 342.878906 L 745 342.878906 Z M 745 244.859375 " clip-rule="nonzero"/></clipPath><clipPath id="b75fa48f05"><path d="M 805.199219 340.800781 C 788.625 310.050781 783.75 301.273438 777.898438 292.351562 C 771.375 282.375 761.773438 268.949219 755.625 261.449219 C 751.800781 256.726562 746.625 253.050781 745.574219 250.5 C 745.125 249.523438 745.125 248.773438 745.425781 248.023438 C 745.726562 247.050781 747 245.699219 747.898438 245.25 C 748.726562 244.875 749.699219 244.949219 750.449219 245.175781 C 751.199219 245.476562 752.023438 246.074219 752.476562 246.675781 C 753 247.351562 753.300781 248.324219 753.226562 249.148438 C 753.074219 250.199219 752.175781 251.773438 751.351562 252.375 C 750.675781 252.898438 749.699219 253.125 748.875 252.976562 C 747.898438 252.824219 746.324219 251.925781 745.726562 250.949219 C 745.199219 249.976562 745.199219 248.175781 745.726562 247.199219 C 746.175781 246.226562 747.75 245.25 748.726562 245.023438 C 749.625 244.875 750.375 245.101562 751.273438 245.550781 C 752.398438 246.148438 753.226562 246.898438 754.800781 248.699219 C 760.050781 254.476562 775.800781 276.675781 783.824219 288.75 C 790.125 298.273438 794.851562 306.523438 799.726562 314.925781 C 804.074219 322.574219 810.675781 332.851562 811.800781 337.199219 C 812.25 338.773438 812.25 339.75 811.875 340.648438 C 811.574219 341.476562 810.675781 342.148438 809.925781 342.523438 C 809.175781 342.824219 808.050781 342.824219 807.226562 342.523438 C 806.476562 342.300781 805.199219 340.800781 805.199219 340.800781 " clip-rule="nonzero"/></clipPath><clipPath id="4ceced566e"><path d="M 355 487.355469 L 383.1875 487.355469 L 383.1875 560.980469 L 355 560.980469 Z M 355 487.355469 " clip-rule="nonzero"/></clipPath><clipPath id="1e1de4fcbc"><path d="M 369.675781 495.523438 C 366.148438 498.898438 364.425781 500.625 364.425781 502.199219 C 364.351562 504 366 506.25 367.273438 507.898438 C 368.550781 509.550781 370.351562 510.226562 372.148438 512.175781 C 375.074219 515.175781 381.074219 521.398438 382.5 524.773438 C 383.324219 526.648438 383.101562 527.925781 383.101562 529.648438 C 383.101562 531.449219 383.175781 533.398438 382.425781 535.351562 C 381.449219 537.976562 379.050781 540.898438 376.949219 543.523438 C 374.773438 546.375 371.398438 549.148438 369.375 551.925781 C 367.648438 554.324219 366.898438 557.625 365.476562 559.050781 C 364.574219 560.023438 363.675781 560.550781 362.625 560.773438 C 361.648438 561 360.300781 561 359.398438 560.476562 C 358.199219 559.800781 356.773438 557.925781 356.398438 556.648438 C 356.175781 555.523438 356.476562 554.324219 356.925781 553.351562 C 357.375 552.449219 358.273438 551.476562 359.324219 551.101562 C 360.523438 550.574219 362.925781 550.574219 364.125 551.324219 C 365.324219 552 366.601562 554.023438 366.675781 555.449219 C 366.75 556.875 365.625 558.898438 364.648438 559.800781 C 363.824219 560.550781 362.550781 560.925781 361.5 560.925781 C 360.523438 560.925781 359.25 560.476562 358.425781 559.875 C 357.601562 559.273438 356.851562 558.148438 356.550781 557.175781 C 356.25 556.199219 356.25 555.226562 356.699219 553.875 C 357.601562 551.023438 361.574219 545.476562 364.125 542.023438 C 366.449219 539.023438 369.675781 536.625 371.25 534 C 372.375 532.050781 373.800781 530.476562 373.351562 528.226562 C 372.523438 524.023438 360.976562 516.375 358.050781 512.023438 C 356.476562 509.625 355.648438 507.75 355.199219 505.800781 C 354.898438 504.148438 354.976562 502.800781 355.351562 501.148438 C 355.726562 499.199219 356.625 496.800781 357.601562 494.925781 C 358.574219 493.273438 359.925781 491.851562 361.199219 490.574219 C 362.324219 489.523438 363.523438 488.324219 364.726562 487.875 C 365.773438 487.425781 366.976562 487.273438 368.023438 487.574219 C 369 487.800781 370.050781 488.625 370.648438 489.523438 C 371.175781 490.351562 371.476562 491.699219 371.324219 492.675781 C 371.175781 493.726562 369.675781 495.523438 369.675781 495.523438 " clip-rule="nonzero"/></clipPath><clipPath id="96ae51b14b"><path d="M 1057.371094 288.707031 L 1087.542969 288.707031 L 1087.542969 381.183594 L 1057.371094 381.183594 Z M 1057.371094 288.707031 " clip-rule="nonzero"/></clipPath><clipPath id="6e6da6a64d"><path d="M 1058.023438 374.101562 C 1065.824219 364.425781 1078.5 360.074219 1079.101562 357.074219 C 1079.398438 355.648438 1077.148438 354.75 1076.550781 353.25 C 1075.800781 351.523438 1075.949219 349.050781 1075.273438 347.101562 C 1074.601562 345.300781 1073.699219 343.949219 1072.425781 342.148438 C 1070.625 339.523438 1066.949219 336.601562 1065 333.300781 C 1062.976562 330.074219 1061.625 326.175781 1060.574219 322.574219 C 1059.675781 319.273438 1059.226562 316.199219 1059.074219 312.75 C 1059 309 1058.925781 304.726562 1060.125 300.976562 C 1061.324219 297.074219 1064.851562 291.226562 1066.425781 289.726562 C 1067.023438 289.125 1067.324219 289.050781 1068 288.976562 C 1069.125 288.824219 1071.675781 288.976562 1072.800781 289.875 C 1073.925781 290.851562 1074.75 293.101562 1074.75 294.449219 C 1074.75 295.574219 1074.226562 296.773438 1073.398438 297.523438 C 1072.425781 298.5 1070.175781 299.398438 1068.75 299.25 C 1067.324219 299.023438 1065.375 297.601562 1064.773438 296.324219 C 1064.101562 295.050781 1064.324219 292.648438 1064.925781 291.375 C 1065.375 290.324219 1066.425781 289.574219 1067.398438 289.125 C 1068.449219 288.75 1069.726562 288.523438 1070.773438 288.898438 C 1072.125 289.351562 1073.925781 290.925781 1074.449219 292.199219 C 1074.898438 293.25 1074.824219 294.523438 1074.523438 295.574219 C 1074.226562 296.550781 1072.425781 298.199219 1072.574219 298.273438 C 1072.648438 298.351562 1073.476562 297.523438 1073.625 297.601562 C 1074 297.976562 1070.101562 303.675781 1069.5 307.425781 C 1068.675781 311.851562 1069.050781 318.898438 1070.25 322.726562 C 1071 325.199219 1072.351562 326.550781 1073.773438 328.5 C 1075.574219 330.898438 1078.5 333.523438 1080.226562 336 C 1081.648438 338.023438 1082.476562 339.523438 1083.523438 342 C 1084.949219 345.523438 1086.898438 351.976562 1087.273438 355.425781 C 1087.574219 357.523438 1087.574219 359.023438 1087.125 360.601562 C 1086.601562 362.175781 1085.476562 363.449219 1084.351562 364.726562 C 1083.300781 366 1082.25 367.050781 1080.675781 368.25 C 1078.425781 369.824219 1074.074219 371.476562 1071.675781 373.050781 C 1069.875 374.25 1068.601562 375.449219 1067.324219 376.726562 C 1066.199219 377.925781 1065.449219 379.800781 1064.398438 380.476562 C 1063.726562 380.925781 1063.050781 381.148438 1062.300781 381.148438 C 1061.324219 381.148438 1059.976562 380.773438 1059.148438 380.175781 C 1058.324219 379.5 1057.648438 378.375 1057.425781 377.324219 C 1057.273438 376.351562 1058.023438 374.101562 1058.023438 374.101562 " clip-rule="nonzero"/></clipPath></defs><rect x="-144" width="1728" fill="#ffffff" y="-80.999999" height="971.999992" fill-opacity="1"/><g clip-path="url(#7d5970ef97)"><path fill="#ff5757" d="M 570 370.5 L 659.25 370.5 L 659.25 491.125 L 570 491.125 Z M 570 370.5 " fill-opacity="1" fill-rule="nonzero"/></g><g clip-path="url(#d183a62d1c)"><path fill="#5e17eb" d="M 748.5 370.5 L 837.75 370.5 L 837.75 491.125 L 748.5 491.125 Z M 748.5 370.5 " fill-opacity="1" fill-rule="nonzero"/></g><g clip-path="url(#11c1240a2f)"><path fill="#8c52ff" d="M 659.25 370.5 L 748.5 370.5 L 748.5 491.125 L 659.25 491.125 Z M 659.25 370.5 " fill-opacity="1" fill-rule="nonzero"/></g><g clip-path="url(#e48c0d1f09)"><g clip-path="url(#f95543b0b1)"><path fill="#ff3131" d="M 324.644531 395.0625 L 406.621094 395.0625 L 406.621094 466.6875 L 324.644531 466.6875 Z M 324.644531 395.0625 " fill-opacity="1" fill-rule="nonzero"/></g></g><g clip-path="url(#1f9b5e5abc)"><g clip-path="url(#7236c04145)"><path fill="#ffbd59" d="M 419.25 412.289062 L 544.113281 412.289062 L 544.113281 449.460938 L 419.25 449.460938 Z M 419.25 412.289062 " fill-opacity="1" fill-rule="nonzero"/></g></g><g clip-path="url(#86492bb629)"><g clip-path="url(#46350e8611)"><path fill="#ffbd59" d="M 880.292969 412.289062 L 1005.15625 412.289062 L 1005.15625 449.460938 L 880.292969 449.460938 Z M 880.292969 412.289062 " fill-opacity="1" fill-rule="nonzero"/></g></g><g clip-path="url(#009d4ee178)"><g clip-path="url(#d238581433)"><path fill="#00bf63" d="M 1024.121094 385.582031 L 1114.707031 385.582031 L 1114.707031 476.167969 L 1024.121094 476.167969 Z M 1024.121094 385.582031 " fill-opacity="1" fill-rule="nonzero"/></g></g><g clip-path="url(#f0a90aa917)"><g clip-path="url(#3023d1d940)"><path fill="#e7191f" d="M 609.449219 267.898438 L 673.425781 267.898438 L 673.425781 356.617188 L 609.449219 356.617188 Z M 609.449219 267.898438 " fill-opacity="1" fill-rule="nonzero"/></g></g><g clip-path="url(#ad764e64b7)"><g clip-path="url(#8d78746f4a)"><path fill="#e7191f" d="M 699.976562 267.898438 L 715.425781 267.898438 L 715.425781 343.339844 L 699.976562 343.339844 Z M 699.976562 267.898438 " fill-opacity="1" fill-rule="nonzero"/></g></g><g clip-path="url(#9f6aa98196)"><g clip-path="url(#b75fa48f05)"><path fill="#e7191f" d="M 742.425781 242.023438 L 814.949219 242.023438 L 814.949219 345.714844 L 742.425781 345.714844 Z M 742.425781 242.023438 " fill-opacity="1" fill-rule="nonzero"/></g></g><g fill="#00bf63" fill-opacity="1"><g transform="translate(643.312476, 223.675014)"><g><path d="M 10.359375 -13.5625 L 10.359375 -11.3125 L 4.4375 -11.3125 L 4.4375 -7.734375 L 9.8125 -7.734375 L 9.8125 -5.515625 L 4.4375 -5.515625 L 4.4375 0 L 1.765625 0 L 1.765625 -13.5625 Z M 10.359375 -13.5625 "/></g></g></g><g fill="#00bf63" fill-opacity="1"><g transform="translate(654.276041, 223.675014)"><g><path d="M 4.6875 0.1875 C 3.53125 0.1875 2.675781 -0.125 2.125 -0.75 C 1.582031 -1.375 1.3125 -2.273438 1.3125 -3.453125 L 1.3125 -10.234375 L 3.890625 -10.234375 L 3.890625 -3.78125 C 3.890625 -3.15625 4.019531 -2.695312 4.28125 -2.40625 C 4.550781 -2.113281 4.96875 -1.96875 5.53125 -1.96875 C 6.25 -1.96875 6.804688 -2.203125 7.203125 -2.671875 C 7.597656 -3.140625 7.796875 -3.875 7.796875 -4.875 L 7.796875 -10.234375 L 10.359375 -10.234375 L 10.359375 0 L 7.890625 0 L 7.890625 -1.5 L 7.703125 -1.546875 C 7.367188 -0.960938 6.96875 -0.523438 6.5 -0.234375 C 6.03125 0.046875 5.425781 0.1875 4.6875 0.1875 Z M 4.6875 0.1875 "/></g></g></g><g fill="#00bf63" fill-opacity="1"><g transform="translate(666.111498, 223.675014)"><g><path d="M 1.46875 0 L 1.46875 -10.234375 L 3.9375 -10.234375 L 3.9375 -8.734375 L 4.140625 -8.6875 C 4.773438 -9.84375 5.804688 -10.421875 7.234375 -10.421875 C 8.421875 -10.421875 9.289062 -10.097656 9.84375 -9.453125 C 10.394531 -8.816406 10.671875 -7.882812 10.671875 -6.65625 L 10.671875 0 L 8.09375 0 L 8.09375 -6.34375 C 8.09375 -7.019531 7.957031 -7.503906 7.6875 -7.796875 C 7.414062 -8.097656 6.984375 -8.25 6.390625 -8.25 C 5.648438 -8.25 5.070312 -8.007812 4.65625 -7.53125 C 4.25 -7.0625 4.046875 -6.316406 4.046875 -5.296875 L 4.046875 0 Z M 1.46875 0 "/></g></g></g><g fill="#00bf63" fill-opacity="1"><g transform="translate(678.095361, 223.675014)"><g><path d="M 1.46875 0 L 1.46875 -14.34375 L 4.046875 -14.34375 L 4.046875 -6.390625 L 4.296875 -6.390625 L 7.25 -10.234375 L 9.859375 -10.234375 L 9.859375 -10.015625 L 6.390625 -5.53125 L 10.25 -0.234375 L 10.25 0 L 7.546875 0 L 4.296875 -4.3125 L 4.046875 -4.3125 L 4.046875 0 Z M 1.46875 0 "/></g></g></g><g fill="#00bf63" fill-opacity="1"><g transform="translate(688.363274, 223.675014)"><g><path d="M 7.0625 -2.4375 L 7.734375 -0.53125 C 7.453125 -0.300781 7.097656 -0.125 6.671875 0 C 6.253906 0.125 5.78125 0.1875 5.25 0.1875 C 4.144531 0.1875 3.300781 -0.109375 2.71875 -0.703125 C 2.144531 -1.304688 1.859375 -2.1875 1.859375 -3.34375 L 1.859375 -8.203125 L 0.3125 -8.203125 L 0.3125 -10.25 L 1.859375 -10.25 L 1.859375 -12.234375 L 4.4375 -12.65625 L 4.4375 -10.25 L 7.34375 -10.25 L 7.34375 -8.203125 L 4.4375 -8.203125 L 4.4375 -3.53125 C 4.4375 -3.019531 4.539062 -2.644531 4.75 -2.40625 C 4.957031 -2.175781 5.265625 -2.0625 5.671875 -2.0625 C 6.128906 -2.0625 6.523438 -2.1875 6.859375 -2.4375 Z M 7.0625 -2.4375 "/></g></g></g><g fill="#00bf63" fill-opacity="1"><g transform="translate(696.312328, 223.675014)"><g><path d="M 2.75 -11.453125 C 2.289062 -11.453125 1.914062 -11.59375 1.625 -11.875 C 1.332031 -12.15625 1.1875 -12.519531 1.1875 -12.96875 C 1.1875 -13.40625 1.332031 -13.765625 1.625 -14.046875 C 1.914062 -14.328125 2.289062 -14.46875 2.75 -14.46875 C 3.0625 -14.46875 3.335938 -14.398438 3.578125 -14.265625 C 3.816406 -14.140625 4.003906 -13.960938 4.140625 -13.734375 C 4.273438 -13.515625 4.34375 -13.257812 4.34375 -12.96875 C 4.34375 -12.675781 4.273438 -12.414062 4.140625 -12.1875 C 4.003906 -11.957031 3.816406 -11.773438 3.578125 -11.640625 C 3.335938 -11.515625 3.0625 -11.453125 2.75 -11.453125 Z M 1.46875 0 L 1.46875 -10.234375 L 4.046875 -10.234375 L 4.046875 0 Z M 1.46875 0 "/></g></g></g><g fill="#00bf63" fill-opacity="1"><g transform="translate(701.821937, 223.675014)"><g><path d="M 5.953125 0.1875 C 4.941406 0.1875 4.054688 -0.015625 3.296875 -0.421875 C 2.546875 -0.835938 1.960938 -1.441406 1.546875 -2.234375 C 1.128906 -3.023438 0.921875 -3.984375 0.921875 -5.109375 C 0.921875 -6.234375 1.128906 -7.191406 1.546875 -7.984375 C 1.960938 -8.785156 2.546875 -9.390625 3.296875 -9.796875 C 4.054688 -10.210938 4.941406 -10.421875 5.953125 -10.421875 C 6.953125 -10.421875 7.828125 -10.210938 8.578125 -9.796875 C 9.335938 -9.390625 9.925781 -8.785156 10.34375 -7.984375 C 10.769531 -7.191406 10.984375 -6.234375 10.984375 -5.109375 C 10.984375 -3.984375 10.769531 -3.023438 10.34375 -2.234375 C 9.925781 -1.441406 9.335938 -0.835938 8.578125 -0.421875 C 7.828125 -0.015625 6.953125 0.1875 5.953125 0.1875 Z M 5.953125 -1.984375 C 7.535156 -1.984375 8.328125 -3.023438 8.328125 -5.109375 C 8.328125 -6.191406 8.125 -6.984375 7.71875 -7.484375 C 7.3125 -7.992188 6.722656 -8.25 5.953125 -8.25 C 4.359375 -8.25 3.5625 -7.203125 3.5625 -5.109375 C 3.5625 -3.023438 4.359375 -1.984375 5.953125 -1.984375 Z M 5.953125 -1.984375 "/></g></g></g><g fill="#00bf63" fill-opacity="1"><g transform="translate(713.713046, 223.675014)"><g><path d="M 1.46875 0 L 1.46875 -10.234375 L 3.9375 -10.234375 L 3.9375 -8.734375 L 4.140625 -8.6875 C 4.773438 -9.84375 5.804688 -10.421875 7.234375 -10.421875 C 8.421875 -10.421875 9.289062 -10.097656 9.84375 -9.453125 C 10.394531 -8.816406 10.671875 -7.882812 10.671875 -6.65625 L 10.671875 0 L 8.09375 0 L 8.09375 -6.34375 C 8.09375 -7.019531 7.957031 -7.503906 7.6875 -7.796875 C 7.414062 -8.097656 6.984375 -8.25 6.390625 -8.25 C 5.648438 -8.25 5.070312 -8.007812 4.65625 -7.53125 C 4.25 -7.0625 4.046875 -6.316406 4.046875 -5.296875 L 4.046875 0 Z M 1.46875 0 "/></g></g></g><g fill="#00bf63" fill-opacity="1"><g transform="translate(725.696909, 223.675014)"><g><path d="M 10.109375 -4.53125 L 3.53125 -4.53125 C 3.601562 -3.644531 3.851562 -3 4.28125 -2.59375 C 4.71875 -2.1875 5.3125 -1.984375 6.0625 -1.984375 C 6.65625 -1.984375 7.132812 -2.09375 7.5 -2.3125 C 7.863281 -2.53125 8.15625 -2.863281 8.375 -3.3125 L 8.578125 -3.3125 L 10.28125 -2.21875 C 9.945312 -1.5 9.441406 -0.914062 8.765625 -0.46875 C 8.085938 -0.03125 7.1875 0.1875 6.0625 0.1875 C 5.007812 0.1875 4.097656 -0.0078125 3.328125 -0.40625 C 2.554688 -0.8125 1.960938 -1.410156 1.546875 -2.203125 C 1.128906 -2.992188 0.921875 -3.960938 0.921875 -5.109375 C 0.921875 -6.273438 1.140625 -7.253906 1.578125 -8.046875 C 2.015625 -8.847656 2.609375 -9.441406 3.359375 -9.828125 C 4.109375 -10.222656 4.945312 -10.421875 5.875 -10.421875 C 7.320312 -10.421875 8.429688 -10.035156 9.203125 -9.265625 C 9.972656 -8.503906 10.359375 -7.382812 10.359375 -5.90625 C 10.359375 -5.363281 10.34375 -4.941406 10.3125 -4.640625 Z M 7.90625 -6.203125 C 7.882812 -6.972656 7.703125 -7.535156 7.359375 -7.890625 C 7.023438 -8.253906 6.53125 -8.4375 5.875 -8.4375 C 4.582031 -8.4375 3.820312 -7.691406 3.59375 -6.203125 Z M 7.90625 -6.203125 "/></g></g></g><g fill="#00bf63" fill-opacity="1"><g transform="translate(736.818163, 223.675014)"><g><path d="M 1.46875 0 L 1.46875 -10.234375 L 3.9375 -10.234375 L 3.9375 -8.734375 L 4.140625 -8.6875 C 4.773438 -9.84375 5.804688 -10.421875 7.234375 -10.421875 C 8.421875 -10.421875 9.289062 -10.097656 9.84375 -9.453125 C 10.394531 -8.816406 10.671875 -7.882812 10.671875 -6.65625 L 10.671875 0 L 8.09375 0 L 8.09375 -6.34375 C 8.09375 -7.019531 7.957031 -7.503906 7.6875 -7.796875 C 7.414062 -8.097656 6.984375 -8.25 6.390625 -8.25 C 5.648438 -8.25 5.070312 -8.007812 4.65625 -7.53125 C 4.25 -7.0625 4.046875 -6.316406 4.046875 -5.296875 L 4.046875 0 Z M 1.46875 0 "/></g></g></g><g clip-path="url(#4ceced566e)"><g clip-path="url(#1e1de4fcbc)"><path fill="#e7191f" d="M 352.199219 484.574219 L 386.101562 484.574219 L 386.101562 564.027344 L 352.199219 564.027344 Z M 352.199219 484.574219 " fill-opacity="1" fill-rule="nonzero"/></g></g><g fill="#e7191f" fill-opacity="1"><g transform="translate(328.939444, 599.599982)"><g><path d="M 4.4375 0 L 1.765625 0 L 1.765625 -13.5625 L 4.4375 -13.5625 Z M 4.4375 0 "/></g></g></g><g fill="#e7191f" fill-opacity="1"><g transform="translate(335.153986, 599.599982)"><g><path d="M 1.46875 0 L 1.46875 -10.234375 L 3.9375 -10.234375 L 3.9375 -8.734375 L 4.140625 -8.6875 C 4.773438 -9.84375 5.804688 -10.421875 7.234375 -10.421875 C 8.421875 -10.421875 9.289062 -10.097656 9.84375 -9.453125 C 10.394531 -8.816406 10.671875 -7.882812 10.671875 -6.65625 L 10.671875 0 L 8.09375 0 L 8.09375 -6.34375 C 8.09375 -7.019531 7.957031 -7.503906 7.6875 -7.796875 C 7.414062 -8.097656 6.984375 -8.25 6.390625 -8.25 C 5.648438 -8.25 5.070312 -8.007812 4.65625 -7.53125 C 4.25 -7.0625 4.046875 -6.316406 4.046875 -5.296875 L 4.046875 0 Z M 1.46875 0 "/></g></g></g><g fill="#e7191f" fill-opacity="1"><g transform="translate(347.137849, 599.599982)"><g><path d="M 1.46875 4.140625 L 1.46875 -10.234375 L 4.046875 -10.234375 L 4.046875 -8.890625 L 4.234375 -8.859375 C 4.535156 -9.378906 4.941406 -9.769531 5.453125 -10.03125 C 5.960938 -10.289062 6.554688 -10.421875 7.234375 -10.421875 C 8.054688 -10.421875 8.773438 -10.226562 9.390625 -9.84375 C 10.003906 -9.457031 10.484375 -8.863281 10.828125 -8.0625 C 11.171875 -7.269531 11.34375 -6.285156 11.34375 -5.109375 C 11.34375 -3.941406 11.160156 -2.960938 10.796875 -2.171875 C 10.441406 -1.378906 9.941406 -0.785156 9.296875 -0.390625 C 8.648438 -0.00390625 7.90625 0.1875 7.0625 0.1875 C 6.425781 0.1875 5.875 0.0820312 5.40625 -0.125 C 4.945312 -0.34375 4.554688 -0.675781 4.234375 -1.125 L 4.046875 -1.078125 L 4.046875 4.140625 Z M 6.359375 -1.984375 C 7.117188 -1.984375 7.695312 -2.234375 8.09375 -2.734375 C 8.488281 -3.234375 8.6875 -4.023438 8.6875 -5.109375 C 8.6875 -6.191406 8.488281 -6.984375 8.09375 -7.484375 C 7.695312 -7.992188 7.117188 -8.25 6.359375 -8.25 C 5.640625 -8.25 5.066406 -7.988281 4.640625 -7.46875 C 4.222656 -6.945312 4.015625 -6.160156 4.015625 -5.109375 C 4.015625 -4.066406 4.222656 -3.285156 4.640625 -2.765625 C 5.066406 -2.242188 5.640625 -1.984375 6.359375 -1.984375 Z M 6.359375 -1.984375 "/></g></g></g><g fill="#e7191f" fill-opacity="1"><g transform="translate(359.390706, 599.599982)"><g><path d="M 4.6875 0.1875 C 3.53125 0.1875 2.675781 -0.125 2.125 -0.75 C 1.582031 -1.375 1.3125 -2.273438 1.3125 -3.453125 L 1.3125 -10.234375 L 3.890625 -10.234375 L 3.890625 -3.78125 C 3.890625 -3.15625 4.019531 -2.695312 4.28125 -2.40625 C 4.550781 -2.113281 4.96875 -1.96875 5.53125 -1.96875 C 6.25 -1.96875 6.804688 -2.203125 7.203125 -2.671875 C 7.597656 -3.140625 7.796875 -3.875 7.796875 -4.875 L 7.796875 -10.234375 L 10.359375 -10.234375 L 10.359375 0 L 7.890625 0 L 7.890625 -1.5 L 7.703125 -1.546875 C 7.367188 -0.960938 6.96875 -0.523438 6.5 -0.234375 C 6.03125 0.046875 5.425781 0.1875 4.6875 0.1875 Z M 4.6875 0.1875 "/></g></g></g><g fill="#e7191f" fill-opacity="1"><g transform="translate(371.226162, 599.599982)"><g><path d="M 7.0625 -2.4375 L 7.734375 -0.53125 C 7.453125 -0.300781 7.097656 -0.125 6.671875 0 C 6.253906 0.125 5.78125 0.1875 5.25 0.1875 C 4.144531 0.1875 3.300781 -0.109375 2.71875 -0.703125 C 2.144531 -1.304688 1.859375 -2.1875 1.859375 -3.34375 L 1.859375 -8.203125 L 0.3125 -8.203125 L 0.3125 -10.25 L 1.859375 -10.25 L 1.859375 -12.234375 L 4.4375 -12.65625 L 4.4375 -10.25 L 7.34375 -10.25 L 7.34375 -8.203125 L 4.4375 -8.203125 L 4.4375 -3.53125 C 4.4375 -3.019531 4.539062 -2.644531 4.75 -2.40625 C 4.957031 -2.175781 5.265625 -2.0625 5.671875 -2.0625 C 6.128906 -2.0625 6.523438 -2.1875 6.859375 -2.4375 Z M 7.0625 -2.4375 "/></g></g></g><g fill="#00bf63" fill-opacity="1"><g transform="translate(1036.42636, 280.125006)"><g><path d="M 7.390625 0.1875 C 6.148438 0.1875 5.054688 -0.0625 4.109375 -0.5625 C 3.160156 -1.070312 2.414062 -1.847656 1.875 -2.890625 C 1.332031 -3.929688 1.0625 -5.226562 1.0625 -6.78125 C 1.0625 -8.332031 1.332031 -9.628906 1.875 -10.671875 C 2.414062 -11.710938 3.160156 -12.488281 4.109375 -13 C 5.054688 -13.507812 6.148438 -13.765625 7.390625 -13.765625 C 8.640625 -13.765625 9.734375 -13.507812 10.671875 -13 C 11.617188 -12.5 12.359375 -11.722656 12.890625 -10.671875 C 13.429688 -9.628906 13.703125 -8.332031 13.703125 -6.78125 C 13.703125 -5.226562 13.429688 -3.925781 12.890625 -2.875 C 12.359375 -1.832031 11.617188 -1.0625 10.671875 -0.5625 C 9.734375 -0.0625 8.640625 0.1875 7.390625 0.1875 Z M 7.390625 -2.140625 C 8.546875 -2.140625 9.425781 -2.503906 10.03125 -3.234375 C 10.632812 -3.972656 10.9375 -5.15625 10.9375 -6.78125 C 10.9375 -8.40625 10.632812 -9.585938 10.03125 -10.328125 C 9.425781 -11.066406 8.546875 -11.4375 7.390625 -11.4375 C 6.234375 -11.4375 5.347656 -11.066406 4.734375 -10.328125 C 4.128906 -9.585938 3.828125 -8.40625 3.828125 -6.78125 C 3.828125 -5.15625 4.128906 -3.972656 4.734375 -3.234375 C 5.347656 -2.503906 6.234375 -2.140625 7.390625 -2.140625 Z M 7.390625 -2.140625 "/></g></g></g><g fill="#00bf63" fill-opacity="1"><g transform="translate(1051.202136, 280.125006)"><g><path d="M 4.6875 0.1875 C 3.53125 0.1875 2.675781 -0.125 2.125 -0.75 C 1.582031 -1.375 1.3125 -2.273438 1.3125 -3.453125 L 1.3125 -10.234375 L 3.890625 -10.234375 L 3.890625 -3.78125 C 3.890625 -3.15625 4.019531 -2.695312 4.28125 -2.40625 C 4.550781 -2.113281 4.96875 -1.96875 5.53125 -1.96875 C 6.25 -1.96875 6.804688 -2.203125 7.203125 -2.671875 C 7.597656 -3.140625 7.796875 -3.875 7.796875 -4.875 L 7.796875 -10.234375 L 10.359375 -10.234375 L 10.359375 0 L 7.890625 0 L 7.890625 -1.5 L 7.703125 -1.546875 C 7.367188 -0.960938 6.96875 -0.523438 6.5 -0.234375 C 6.03125 0.046875 5.425781 0.1875 4.6875 0.1875 Z M 4.6875 0.1875 "/></g></g></g><g fill="#00bf63" fill-opacity="1"><g transform="translate(1063.037592, 280.125006)"><g><path d="M 7.0625 -2.4375 L 7.734375 -0.53125 C 7.453125 -0.300781 7.097656 -0.125 6.671875 0 C 6.253906 0.125 5.78125 0.1875 5.25 0.1875 C 4.144531 0.1875 3.300781 -0.109375 2.71875 -0.703125 C 2.144531 -1.304688 1.859375 -2.1875 1.859375 -3.34375 L 1.859375 -8.203125 L 0.3125 -8.203125 L 0.3125 -10.25 L 1.859375 -10.25 L 1.859375 -12.234375 L 4.4375 -12.65625 L 4.4375 -10.25 L 7.34375 -10.25 L 7.34375 -8.203125 L 4.4375 -8.203125 L 4.4375 -3.53125 C 4.4375 -3.019531 4.539062 -2.644531 4.75 -2.40625 C 4.957031 -2.175781 5.265625 -2.0625 5.671875 -2.0625 C 6.128906 -2.0625 6.523438 -2.1875 6.859375 -2.4375 Z M 7.0625 -2.4375 "/></g></g></g><g fill="#00bf63" fill-opacity="1"><g transform="translate(1070.986646, 280.125006)"><g><path d="M 1.46875 4.140625 L 1.46875 -10.234375 L 4.046875 -10.234375 L 4.046875 -8.890625 L 4.234375 -8.859375 C 4.535156 -9.378906 4.941406 -9.769531 5.453125 -10.03125 C 5.960938 -10.289062 6.554688 -10.421875 7.234375 -10.421875 C 8.054688 -10.421875 8.773438 -10.226562 9.390625 -9.84375 C 10.003906 -9.457031 10.484375 -8.863281 10.828125 -8.0625 C 11.171875 -7.269531 11.34375 -6.285156 11.34375 -5.109375 C 11.34375 -3.941406 11.160156 -2.960938 10.796875 -2.171875 C 10.441406 -1.378906 9.941406 -0.785156 9.296875 -0.390625 C 8.648438 -0.00390625 7.90625 0.1875 7.0625 0.1875 C 6.425781 0.1875 5.875 0.0820312 5.40625 -0.125 C 4.945312 -0.34375 4.554688 -0.675781 4.234375 -1.125 L 4.046875 -1.078125 L 4.046875 4.140625 Z M 6.359375 -1.984375 C 7.117188 -1.984375 7.695312 -2.234375 8.09375 -2.734375 C 8.488281 -3.234375 8.6875 -4.023438 8.6875 -5.109375 C 8.6875 -6.191406 8.488281 -6.984375 8.09375 -7.484375 C 7.695312 -7.992188 7.117188 -8.25 6.359375 -8.25 C 5.640625 -8.25 5.066406 -7.988281 4.640625 -7.46875 C 4.222656 -6.945312 4.015625 -6.160156 4.015625 -5.109375 C 4.015625 -4.066406 4.222656 -3.285156 4.640625 -2.765625 C 5.066406 -2.242188 5.640625 -1.984375 6.359375 -1.984375 Z M 6.359375 -1.984375 "/></g></g></g><g fill="#00bf63" fill-opacity="1"><g transform="translate(1083.239503, 280.125006)"><g><path d="M 4.6875 0.1875 C 3.53125 0.1875 2.675781 -0.125 2.125 -0.75 C 1.582031 -1.375 1.3125 -2.273438 1.3125 -3.453125 L 1.3125 -10.234375 L 3.890625 -10.234375 L 3.890625 -3.78125 C 3.890625 -3.15625 4.019531 -2.695312 4.28125 -2.40625 C 4.550781 -2.113281 4.96875 -1.96875 5.53125 -1.96875 C 6.25 -1.96875 6.804688 -2.203125 7.203125 -2.671875 C 7.597656 -3.140625 7.796875 -3.875 7.796875 -4.875 L 7.796875 -10.234375 L 10.359375 -10.234375 L 10.359375 0 L 7.890625 0 L 7.890625 -1.5 L 7.703125 -1.546875 C 7.367188 -0.960938 6.96875 -0.523438 6.5 -0.234375 C 6.03125 0.046875 5.425781 0.1875 4.6875 0.1875 Z M 4.6875 0.1875 "/></g></g></g><g fill="#00bf63" fill-opacity="1"><g transform="translate(1095.074959, 280.125006)"><g><path d="M 7.0625 -2.4375 L 7.734375 -0.53125 C 7.453125 -0.300781 7.097656 -0.125 6.671875 0 C 6.253906 0.125 5.78125 0.1875 5.25 0.1875 C 4.144531 0.1875 3.300781 -0.109375 2.71875 -0.703125 C 2.144531 -1.304688 1.859375 -2.1875 1.859375 -3.34375 L 1.859375 -8.203125 L 0.3125 -8.203125 L 0.3125 -10.25 L 1.859375 -10.25 L 1.859375 -12.234375 L 4.4375 -12.65625 L 4.4375 -10.25 L 7.34375 -10.25 L 7.34375 -8.203125 L 4.4375 -8.203125 L 4.4375 -3.53125 C 4.4375 -3.019531 4.539062 -2.644531 4.75 -2.40625 C 4.957031 -2.175781 5.265625 -2.0625 5.671875 -2.0625 C 6.128906 -2.0625 6.523438 -2.1875 6.859375 -2.4375 Z M 7.0625 -2.4375 "/></g></g></g><g clip-path="url(#96ae51b14b)"><g clip-path="url(#6e6da6a64d)"><path fill="#00bf63" d="M 1054.425781 285.898438 L 1090.351562 285.898438 L 1090.351562 384.132812 L 1054.425781 384.132812 Z M 1054.425781 285.898438 " fill-opacity="1" fill-rule="nonzero"/></g></g></svg>